<?xml version="1.0" encoding="UTF-8" standalone="no"?>
<!-- Created with Inkscape (http://www.inkscape.org/) -->

<svg
   width="35.807178mm"
   height="30.882223mm"
   viewBox="0 0 35.807178 30.882223"
   version="1.1"
   id="svg1"
   xml:space="preserve"
   xmlns="http://www.w3.org/2000/svg"
   xmlns:svg="http://www.w3.org/2000/svg"><defs
     id="defs1" /><g
     id="layer1"
     transform="translate(-730.14821,-407.68209)"><path
       style="fill:#0f1695;fill-opacity:1;stroke-width:2.74691"
       d="m 731.16788,436.57185 c 2.72969,-4.02104 3.05314,-5.53545 1.57275,-7.36366 -1.8453,-2.27883 -3.02125,-6.98085 -2.44511,-9.77663 0.76128,-3.69404 3.67866,-7.51658 7.41121,-9.71062 3.14291,-1.84746 4.11665,-2.03884 10.37298,-2.03884 6.25634,0 7.23006,0.19147 10.37299,2.03884 5.8594,3.44424 8.61969,9.2851 7.0837,14.98935 -2.10807,7.82872 -12.1763,13.05352 -21.21921,11.0115 -3.02833,-0.68384 -3.82111,-0.57111 -7.26785,1.03348 -2.12781,0.99055 -4.62688,1.80422 -5.5535,1.80814 -1.68243,0.008 -1.68287,0.006 -0.32796,-1.99156 z m 19.0922,-10.31065 c 0,-1.87672 0.28509,-2.16182 2.36205,-2.36207 2.08936,-0.20135 2.36204,-0.47945 2.36204,-2.4081 0,-1.92866 -0.27277,-2.20665 -2.36204,-2.40811 -2.07696,-0.20024 -2.36205,-0.48535 -2.36205,-2.36204 0,-1.88692 -0.25272,-2.13432 -2.18037,-2.13432 -1.92764,0 -2.18036,0.2475 -2.18036,2.13432 0,1.87669 -0.28509,2.1618 -2.36206,2.36204 -2.08935,0.20135 -2.36204,0.47945 -2.36204,2.40811 0,1.92865 0.27277,2.20664 2.36204,2.4081 2.07697,0.20025 2.36206,0.48535 2.36206,2.36207 0,1.88693 0.25272,2.13429 2.18036,2.13429 1.92765,0 2.18037,-0.24749 2.18037,-2.13429 z"
       id="path7" /></g></svg>
