<?xml version="1.0" encoding="UTF-8" standalone="no"?>
<!-- Created with Inkscape (http://www.inkscape.org/) -->

<svg
   width="25.386272mm"
   height="28.309481mm"
   viewBox="0 0 25.386272 28.309481"
   version="1.1"
   id="svg1"
   xml:space="preserve"
   xmlns="http://www.w3.org/2000/svg"
   xmlns:svg="http://www.w3.org/2000/svg"><defs
     id="defs1" /><g
     id="layer1"
     transform="translate(-397.52348,-409.82503)"><path
       style="fill:#0f1695;fill-opacity:1"
       d="m 407.2016,437.03719 c -4.41317,-2.27215 -7.16635,-4.88389 -8.71995,-8.27199 -0.72506,-1.58121 -0.80691,-2.36587 -0.91908,-8.81112 -0.0973,-5.59165 -0.0243,-7.15647 0.34822,-7.46229 0.25925,-0.21283 1.96364,-0.56727 3.78753,-0.78763 1.82389,-0.22037 4.20514,-0.73332 5.29167,-1.1399 1.08652,-0.40658 2.53112,-0.73924 3.21022,-0.73924 0.6791,0 2.12369,0.33266 3.21022,0.73924 1.08652,0.40658 3.46777,0.91953 5.29166,1.1399 1.8239,0.22036 3.51461,0.56345 3.75714,0.7624 0.56452,0.46309 0.61342,11.78378 0.062,14.35493 -0.52452,2.44579 -2.71682,5.67939 -5.13975,7.58106 -2.36593,1.85694 -6.01647,3.74265 -7.22456,3.73189 -0.46126,-0.004 -1.79116,-0.49787 -2.95532,-1.09725 z m 8.9183,-12.32754 c 0.0985,-4.0678 0.0954,-4.08524 -0.79375,-4.49036 -0.61806,-0.2816 -0.89261,-0.68568 -0.89261,-1.31372 0,-2.26101 -1.6556,-3.69421 -4.26745,-3.69421 -2.55317,0 -4.19921,1.46146 -4.19921,3.72832 0,0.58876 -0.2871,1.00372 -0.88195,1.27475 -0.86414,0.39373 -0.88194,0.48142 -0.88194,4.34337 0,2.16783 0.10962,4.05114 0.2436,4.18512 0.13398,0.13398 2.79304,0.20013 5.90903,0.14699 l 5.66542,-0.0966 z m -6.38271,1.91554 c -0.1334,-0.1334 -0.24254,-0.58121 -0.24254,-0.99513 0,-0.41393 -0.17452,-0.92711 -0.38782,-1.14042 -0.48025,-0.48025 -0.11815,-1.73568 0.57764,-2.00268 1.17526,-0.45099 2.41055,1.05951 1.63702,2.00174 -0.19147,0.23322 -0.40302,0.80848 -0.47012,1.27836 -0.12431,0.8705 -0.67651,1.2958 -1.11418,0.85813 z m -2.17011,-7.62147 c 0.36447,-1.70451 0.785,-2.02848 2.63313,-2.02848 1.84813,0 2.26866,0.32397 2.63312,2.02848 l 0.24516,1.14652 h -2.87828 -2.87828 z"
       id="path3" /></g></svg>
