<?xml version="1.0" encoding="UTF-8" standalone="no"?>
<!-- Created with Inkscape (http://www.inkscape.org/) -->

<svg
   width="33.866699mm"
   height="33.835728mm"
   viewBox="0 0 33.866699 33.835728"
   version="1.1"
   id="svg1"
   xml:space="preserve"
   xmlns="http://www.w3.org/2000/svg"
   xmlns:svg="http://www.w3.org/2000/svg"><defs
     id="defs1" /><g
     id="layer1"
     transform="translate(-299.90702,-403.89583)"><path
       style="fill:#0f1695;fill-opacity:1"
       d="m 299.90703,432.79265 v -4.93889 h 2.82222 2.82223 v 4.93889 4.93889 h -2.82223 -2.82222 z m 7.05556,-1.41111 v -6.35 h 2.82222 2.82222 v 6.35 6.35 h -2.82222 -2.82222 z m 7.05555,-2.82222 v -9.17222 h 2.82222 2.82223 v 9.17222 9.17222 h -2.82223 -2.82222 z m 7.05556,1.76389 v -7.40833 h 2.82222 2.82222 v 7.40833 7.40833 h -2.82222 -2.82222 z m 7.05555,-4.93889 V 413.0371 h 2.82222 2.82223 v 12.34722 12.34722 h -2.82223 -2.82222 z m -26.38777,-4.30389 c -1.01007,-1.01006 -0.14605,-2.45563 1.39167,-2.32836 1.14799,0.095 4.94601,-1.45566 5.52514,-2.25583 0.25353,-0.3503 0.74854,-0.63692 1.10001,-0.63692 0.88823,0 5.22522,-3.41415 5.76341,-4.53705 0.61079,-1.27437 1.65253,-1.39091 2.53725,-0.28384 0.73754,0.92289 4.31141,2.70773 5.40605,2.69986 0.73093,-0.005 5.95447,-7.18396 6.13132,-8.42627 0.16111,-1.13172 1.15056,-1.74897 1.97251,-1.2305 0.8625,0.54405 0.79106,2.00009 -0.11772,2.39939 -0.94744,0.41627 -6.14409,7.64871 -6.14409,8.55102 0,1.52168 -1.78221,2.07758 -2.55465,0.79683 -0.57459,-0.95272 -4.18808,-2.79166 -5.48555,-2.79166 -1.19564,0 -5.24984,2.97938 -6.09891,4.48202 -0.42592,0.75377 -0.84141,0.9989 -1.76389,1.04065 -1.64252,0.0743 -4.94491,1.42446 -5.53102,2.26126 -0.54095,0.77231 -1.50171,0.88923 -2.13153,0.2594 z"
       id="path2" /></g></svg>
