<?xml version="1.0" encoding="UTF-8" standalone="no"?>
<!-- Created with Inkscape (http://www.inkscape.org/) -->

<svg
   width="35.277821mm"
   height="26.811123mm"
   viewBox="0 0 35.277821 26.811123"
   version="1.1"
   id="svg1"
   xml:space="preserve"
   xmlns="http://www.w3.org/2000/svg"
   xmlns:svg="http://www.w3.org/2000/svg"><defs
     id="defs1" /><g
     id="layer1"
     transform="translate(-572.30543,-409.26174)"><path
       style="fill:#0f1695;fill-opacity:1"
       d="m 595.58881,435.36731 c -0.61148,-0.61148 -0.70555,-1.17592 -0.70555,-4.23333 0,-4.97223 -0.0429,-4.93889 6.35,-4.93889 6.39286,0 6.35,-0.0333 6.35,4.93889 0,4.97222 0.0429,4.93889 -6.35,4.93889 -4.46852,0 -5.00609,-0.0672 -5.64445,-0.70556 z m -5.73264,-7.61871 c -2.72856,-2.09357 -3.43958,-2.82127 -3.43958,-3.52032 0,-0.82038 0.24346,-0.69682 3.52778,1.79042 2.79082,2.11352 3.52778,2.85316 3.52778,3.54067 0,0.47798 -0.0397,0.85989 -0.0882,0.8487 -0.0485,-0.0112 -1.63601,-1.20796 -3.52778,-2.65947 z m -16.84513,-0.84795 c -0.61148,-0.61149 -0.70556,-1.17593 -0.70556,-4.23334 0,-4.97222 -0.0429,-4.93889 6.35,-4.93889 6.39286,0 6.35,-0.0333 6.35,4.93889 0,4.97223 0.0429,4.93889 -6.35,4.93889 -4.46852,0 -5.00608,-0.0672 -5.64444,-0.70555 z m 13.40555,-5.79506 c 0,-0.70383 0.71243,-1.42147 3.52778,-3.55356 3.28572,-2.4883 3.52778,-2.6111 3.52778,-1.78967 0,0.70384 -0.71243,1.42148 -3.52778,3.55356 -3.28572,2.4883 -3.52778,2.6111 -3.52778,1.78967 z m 9.17222,-2.67161 c -0.61148,-0.61148 -0.70555,-1.17593 -0.70555,-4.23333 0,-4.97223 -0.0429,-4.93889 6.35,-4.93889 6.39286,0 6.35,-0.0333 6.35,4.93889 0,4.97222 0.0429,4.93888 -6.35,4.93888 -4.46852,0 -5.00609,-0.0672 -5.64445,-0.70555 z"
       id="path5" /></g></svg>
