<?xml version="1.0" encoding="UTF-8" standalone="no"?>
<!-- Created with Inkscape (http://www.inkscape.org/) -->

<svg
   width="24.649399mm"
   height="31.750002mm"
   viewBox="0 0 24.649399 31.750002"
   version="1.1"
   id="svg1"
   xml:space="preserve"
   xmlns="http://www.w3.org/2000/svg"
   xmlns:svg="http://www.w3.org/2000/svg"><defs
     id="defs1" /><g
     id="layer1"
     transform="translate(-655.40761,-407.15429)"><path
       style="fill:#0f1695;fill-opacity:1"
       d="m 656.43883,437.8731 -1.0312,-1.0312 v -13.81261 -13.8126 l 1.0312,-1.0312 1.0312,-1.0312 h 8.85791 c 6.64159,0 9.14332,0.11926 9.99862,0.47662 1.51306,0.6322 3.3362,2.7543 3.59983,4.19015 0.11655,0.63474 0.16406,6.60516 0.1056,13.26761 l -0.1063,12.11354 -0.98981,0.85104 -0.98982,0.85104 h -10.23801 -10.23802 z m 6.9063,-7.96464 c 0,-0.83791 -1.35583,-1.16061 -2.14043,-0.50944 -0.73551,0.61041 0.0523,1.45772 1.22829,1.32102 0.64161,-0.0746 0.91214,-0.31528 0.91214,-0.81158 z m 10.93611,0 c 0,-0.65391 -0.26891,-0.71296 -3.67355,-0.80673 -3.72696,-0.10264 -4.53478,0.12128 -4.14087,1.14779 0.18365,0.47858 0.79714,0.54958 4.01559,0.46469 3.53025,-0.0931 3.79883,-0.15008 3.79883,-0.80575 z m -10.75972,-4.05022 c 0,-0.85128 -1.53562,-1.34089 -2.27667,-0.72588 -0.81162,0.67359 -0.2424,1.42471 1.07969,1.42471 0.95796,0 1.19698,-0.13955 1.19698,-0.69883 z m 10.93611,0.031 c 0,-0.92563 -0.65542,-1.09689 -4.17399,-1.09068 -3.26354,0.006 -4.17296,0.28951 -3.82599,1.19372 0.1806,0.47061 0.86553,0.56477 4.10835,0.56477 3.58313,0 3.89163,-0.0529 3.89163,-0.66781 z m -11.49413,-3.42686 c 0.30691,-0.11777 0.55802,-0.51464 0.55802,-0.88194 0,-0.52803 -0.25845,-0.66781 -1.23472,-0.66781 -0.98164,0 -1.23472,0.13859 -1.23472,0.67615 0,0.89129 0.85135,1.28039 1.91142,0.8736 z m 10.93611,0 c 0.30691,-0.11777 0.55802,-0.51984 0.55802,-0.89349 0,-0.63626 -0.2516,-0.67304 -3.96452,-0.57962 -3.3699,0.0848 -3.98141,0.18788 -4.07709,0.68736 -0.064,0.33439 0.16217,0.65881 0.52495,0.75283 0.9684,0.25097 6.32439,0.27631 6.95864,0.0329 z m 4.43858,-10.21033 c 0,-0.60011 -1.14624,-2.25199 -1.90984,-2.75231 -1.51504,-0.9927 -2.09506,-0.77892 -1.85756,0.68464 0.11301,0.69641 0.39135,1.49016 0.61852,1.76389 0.38536,0.46433 3.14888,0.73093 3.14888,0.30378 z"
       id="path6" /></g></svg>
