<?xml version="1.0" encoding="UTF-8" standalone="no"?>
<!-- Created with Inkscape (http://www.inkscape.org/) -->

<svg
   width="29.819466mm"
   height="30.503824mm"
   viewBox="0 0 29.819466 30.503824"
   version="1.1"
   id="svg1"
   xml:space="preserve"
   xmlns="http://www.w3.org/2000/svg"
   xmlns:svg="http://www.w3.org/2000/svg"><defs
     id="defs1" /><g
     id="layer1"
     transform="translate(-484.00434,-408.01589)"><path
       style="fill:#0f1695;fill-opacity:1"
       d="m 506.56006,434.27937 -4.24035,-4.24036 -1.74935,0.7939 c -2.70134,1.22594 -7.06592,1.15334 -9.74458,-0.1621 -2.54166,-1.24815 -4.59209,-3.29859 -5.84025,-5.84024 -0.8394,-1.70929 -0.98118,-2.43133 -0.98118,-4.99663 0,-2.56529 0.14178,-3.28733 0.98118,-4.99662 0.53965,-1.09891 1.62492,-2.64175 2.41171,-3.42854 0.78679,-0.78679 2.32963,-1.87206 3.42854,-2.41171 1.70929,-0.8394 2.43133,-0.98118 4.99662,-0.98118 2.5653,0 3.28734,0.14178 4.99663,0.98118 2.54165,1.24816 4.59209,3.29859 5.84024,5.84025 0.84133,1.71321 0.98119,2.42899 0.98119,5.02157 0,2.70007 -0.11742,3.24733 -1.09752,5.11527 l -1.09752,2.09173 4.18919,4.2433 4.18919,4.2433 -1.5117,1.48362 -1.51169,1.48361 z m -6.67034,-6.25376 c 1.64089,-0.84521 3.34964,-2.57258 4.26466,-4.31111 0.90062,-1.71118 0.90062,-6.04993 0,-7.76111 -0.9066,-1.72254 -2.61059,-3.45413 -4.27503,-4.34427 -1.08175,-0.57851 -2.02868,-0.75466 -4.05695,-0.75466 -3.0061,0 -4.69963,0.69203 -6.57509,2.68676 -1.88937,2.00955 -2.40673,3.36225 -2.40673,6.29272 0,2.93071 0.51769,4.28411 2.40673,6.29191 1.11571,1.18584 2.47423,2.03732 4.10336,2.57185 1.45506,0.47742 5.01844,0.11117 6.53905,-0.67209 z"
       id="path4" /></g></svg>
